<?xml version="1.0" encoding="utf-8"?>
<!-- Generator: Adobe Illustrator 24.1.3, SVG Export Plug-In . SVG Version: 6.00 Build 0)  -->
<svg version="1.1" xmlns="http://www.w3.org/2000/svg" xmlns:xlink="http://www.w3.org/1999/xlink" x="0px" y="0px"
	 viewBox="0 0 112.5 117.5" enable-background="new 0 0 112.5 117.5" xml:space="preserve">
<!--<g id="BG">-->
<!--	<rect fill="#231F20" width="112.5" height="117.5"/>-->
<!--</g>-->
<g id="dots">
	<g id="g39878" transform="matrix(0.55396467,0,0,0.57246732,56.086901,77.489273)">
		<path id="path39880" fill="#FFFFFF" d="M-48.781-99.914c0,10.887-8.827,19.713-19.714,19.713
			c-10.886,0-19.712-8.826-19.712-19.713c0-10.885,8.827-19.713,19.712-19.713C-57.608-119.627-48.781-110.799-48.781-99.914z"/>
		<path id="path39882" fill="#FFFFFF" d="M-48.781-32.734c0,10.887-8.827,19.713-19.714,19.713
			c-10.886,0-19.712-8.826-19.712-19.713c0-10.887,8.827-19.713,19.712-19.713C-57.608-52.447-48.781-43.621-48.781-32.734z"/>
		<path id="path39884" fill="#FFFFFF" d="M-48.781,34.445c0,10.885-8.827,19.713-19.714,19.713
			c-10.886,0-19.712-8.828-19.712-19.713c0-10.885,8.827-19.713,19.712-19.713C-57.608,14.732-48.781,23.56-48.781,34.445z"/>
		<path id="path39886" fill="#FFFFFF" d="M20.008-32.734c0,10.887-8.827,19.713-19.714,19.713c-10.886,0-19.712-8.826-19.712-19.713
			c0-10.887,8.827-19.713,19.712-19.713C11.181-52.447,20.008-43.621,20.008-32.734z"/>
		<path id="path39888" fill="#FFFFFF" d="M20.008-99.914c0,10.887-8.827,19.713-19.714,19.713c-10.886,0-19.712-8.826-19.712-19.713
			c0-10.885,8.827-19.713,19.712-19.713C11.181-119.627,20.008-110.799,20.008-99.914z"/>
		<path id="path39890" fill="#FFFFFF" d="M88.796-32.734c0,10.887-8.827,19.713-19.714,19.713c-10.886,0-19.712-8.826-19.712-19.713
			c0-10.887,8.827-19.713,19.712-19.713C79.97-52.447,88.796-43.621,88.796-32.734z"/>
		<path id="path39892" fill="#FFFFFF" d="M88.796-99.914c0,10.887-8.827,19.713-19.714,19.713c-10.886,0-19.712-8.826-19.712-19.713
			c0-10.885,8.827-19.713,19.712-19.713C79.97-119.627,88.796-110.799,88.796-99.914z"/>
		<path id="path39894" fill="#FFFFFF" d="M88.796,34.445c0,10.885-8.827,19.713-19.714,19.713c-10.886,0-19.712-8.828-19.712-19.713
			c0-10.885,8.827-19.713,19.712-19.713C79.97,14.732,88.796,23.56,88.796,34.445z"/>
		<path id="path39896" fill="#FFFFFF" d="M20.008,34.445c0,10.885-8.827,19.713-19.714,19.713c-10.886,0-19.712-8.828-19.712-19.713
			c0-10.885,8.827-19.713,19.712-19.713C11.181,14.732,20.008,23.56,20.008,34.445z"/>
	</g>
</g>
</svg>
